<svg width="91" height="25" viewBox="0 0 91 25" fill="none" xmlns="http://www.w3.org/2000/svg">
<path d="M11.9026 19.0365H4.43697L2.89123 24.5288H0.687719L7.59423 0.947996H8.71243L15.6518 24.5288H13.4648L11.9026 19.0365ZM5.01251 17.0139H11.3435L8.23555 6.14433L8.16978 5.27279L8.104 6.14433L5.01251 17.0139ZM27.2285 24.5288V12.1957C27.2285 11.7901 27.1517 11.4119 26.9982 11.0611C26.8448 10.6993 26.6365 10.3869 26.3734 10.1238C26.1103 9.86069 25.7978 9.6524 25.4361 9.49892C25.0853 9.34544 24.707 9.2687 24.3014 9.2687H22.953C22.5474 9.2687 22.1637 9.34544 21.8019 9.49892C21.4511 9.6524 21.1442 9.86069 20.8811 10.1238C20.6179 10.3869 20.4097 10.6993 20.2562 11.0611C20.1027 11.4119 20.026 11.7901 20.026 12.1957V24.5288H18.0033V7.69007H18.6775L19.7793 9.40025C20.2397 8.77538 20.8153 8.28206 21.5059 7.92029C22.2075 7.54755 22.9694 7.36119 23.7917 7.36119H24.3014C24.9811 7.36119 25.6224 7.49274 26.2254 7.75585C26.8283 8.00799 27.3545 8.3588 27.804 8.80827C28.2535 9.25774 28.6043 9.78395 28.8564 10.3869C29.1195 10.9898 29.2511 11.6312 29.2511 12.3109V24.5288H27.2285ZM33.8061 3.64483V0.947996H36.1576V3.64483H33.8061ZM33.9705 24.5288V7.69007H35.9932V24.5288H33.9705ZM58.5051 24.5288V12.1957C58.5051 11.7901 58.4284 11.4119 58.2749 11.0611C58.1214 10.6993 57.9131 10.3869 57.65 10.1238C57.3869 9.86069 57.0745 9.6524 56.7127 9.49892C56.3619 9.34544 55.9837 9.2687 55.5781 9.2687H54.575C54.1694 9.2687 53.7857 9.34544 53.4239 9.49892C53.0731 9.6524 52.7606 9.86069 52.4866 10.1238C52.2235 10.3869 52.0152 10.6993 51.8617 11.0611C51.7082 11.4119 51.6315 11.7901 51.6315 12.1957V24.5288H49.6253V12.1957C49.6253 11.7901 49.5486 11.4119 49.3951 11.0611C49.2416 10.6993 49.0278 10.3869 48.7538 10.1238C48.4907 9.86069 48.1782 9.6524 47.8165 9.49892C47.4657 9.34544 47.0874 9.2687 46.6818 9.2687H45.6787C45.2731 9.2687 44.8894 9.34544 44.5276 9.49892C44.1768 9.6524 43.8699 9.86069 43.6068 10.1238C43.3437 10.3869 43.1354 10.6993 42.9819 11.0611C42.8284 11.4119 42.7517 11.7901 42.7517 12.1957V24.5288H40.7291V7.69007H41.4033L42.505 9.40025C42.9655 8.77538 43.541 8.28206 44.2316 7.92029C44.9333 7.54755 45.6952 7.36119 46.5174 7.36119H46.6818C47.6356 7.36119 48.4961 7.59689 49.2635 8.06828C50.0309 8.53968 50.6229 9.16456 51.0395 9.94291C51.2478 9.55921 51.5054 9.20841 51.8124 8.89049C52.1193 8.57257 52.4592 8.30398 52.8319 8.08473C53.2046 7.85451 53.6103 7.67911 54.0488 7.55852C54.4873 7.42696 54.9422 7.36119 55.4136 7.36119H55.5781C56.2578 7.36119 56.8991 7.49274 57.502 7.75585C58.105 8.00799 58.6312 8.3588 59.0807 8.80827C59.5301 9.25774 59.8809 9.78395 60.1331 10.3869C60.3962 10.9898 60.5277 11.6312 60.5277 12.3109V24.5288H58.5051ZM70.9697 2.97062V24.5288H68.8484V2.97062H63.2246V0.947996H76.5936V2.97062H70.9697ZM84.5854 24.5288H83.5823L77.6131 7.69007H79.6358L84.0263 20.4507L84.0921 21.3222L84.1579 20.4507L88.532 7.69007H90.5546L84.5854 24.5288Z" fill="#1E234B"/>
</svg>
